<svg xmlns="http://www.w3.org/2000/svg" width="313" height="47" viewBox="0 0 313 47">
    <g fill="none" fill-rule="evenodd">
        <path fill="#000" d="M270.932 11.975c-6.284 0-10.673 5.183-10.673 12.604 0 3.59 1.055 6.566 3.052 8.605 1.783 1.82 4.262 2.822 6.982 2.822 6.311 0 8.601-4.759 9.153-6.217l.04-.106-.747-.384-.061.095c-1.095 1.693-3.155 2.702-5.51 2.702-1.805 0-3.429-.79-4.572-2.227-1.29-1.622-1.972-4.035-1.972-6.981V22.5h12.87v-1.254c0-2.453-.711-4.704-2.003-6.34-1.516-1.919-3.784-2.932-6.56-2.932m2.793 8.917l-7.095.274c.202-5.815 1.318-8.19 3.84-8.19.697 0 1.26.231 1.725.707 1.073 1.1 1.574 3.46 1.53 7.21M0 3.25l.108.016c3.18.426 3.439 2.197 3.439 4.296v22.632c0 2.072-.258 3.822-3.44 4.249L0 34.458v.938h13.685v-.94l-.108-.013c-3.157-.406-3.393-1.946-3.393-4.25V7.563c0-2.332.236-3.89 3.393-4.296l.108-.015v-.94H0v.94M98.577 11.975c-2.09 0-4.128.958-6.221 2.93v-3.147l-8.694 1.878v.696h.124c1.935 0 2.387.308 2.387 3.345v24.551c0 3.102-.455 3.815-2.432 3.815h-.124V47h12.117v-.957h-.124c-2.524 0-3.254-.856-3.254-3.815v-7.83c1.056.982 2.638 1.562 4.3 1.562 6.084 0 10.171-5.084 10.171-12.65 0-6.886-3.238-11.335-8.25-11.335m-3.424 22.089c-1.882 0-2.797-.847-2.797-2.589V16.014c.687-.44 1.375-.646 2.158-.646 2.17 0 5.81 1.203 5.81 9.256 0 4.053-.535 9.44-5.17 9.44M63.445 33.916c-2.312 0-3.28-.406-3.28-2.914V14.135c0-6.955.14-13.042.142-13.103l.004-.15-9.536 1.437v.844h.124c2.178 0 2.989.908 2.989 3.352l.136 6.994c-1.242-1.046-2.66-1.534-4.437-1.534-6.584 0-10.03 6.363-10.03 12.65 0 3.505.783 6.399 2.266 8.371 1.457 1.939 3.56 2.964 6.08 2.964 1.384 0 3.507-.322 6.117-3.04l-.078 3.004 9.652-.878-.028-1.13h-.121zm-9.416-2.091c-.386.233-1.208.458-2.113.458-2.672 0-5.857-1.557-5.857-8.973 0-8.502 3.24-9.771 5.172-9.771 1.856 0 2.798 1.125 2.798 3.345v14.94zM177.42 33.916c-2.313 0-3.28-.406-3.28-2.914V14.135c0-6.955.14-13.042.142-13.103l.003-.15-9.536 1.437v.844h.124c2.179 0 2.988.908 2.99 3.352l.134 6.994c-1.24-1.046-2.658-1.534-4.435-1.534-6.585 0-10.03 6.363-10.03 12.65 0 3.505.783 6.399 2.266 8.371 1.457 1.939 3.559 2.964 6.08 2.964 1.383 0 3.507-.322 6.117-3.04l-.079 3.004 9.652-.878-.027-1.13h-.122zm-9.417-2.091c-.385.233-1.207.458-2.112.458-2.672 0-5.857-1.557-5.857-8.973 0-8.502 3.24-9.771 5.172-9.771 1.856 0 2.797 1.125 2.797 3.345v14.94zM74.278 11.975c-6.284 0-10.674 5.183-10.674 12.604 0 3.59 1.056 6.566 3.053 8.605 1.783 1.82 4.262 2.822 6.981 2.822 6.312 0 8.602-4.759 9.153-6.217l.04-.106-.747-.384-.06.095c-1.096 1.693-3.155 2.702-5.51 2.702-1.805 0-3.43-.79-4.572-2.227-1.29-1.622-1.972-4.035-1.972-6.981V22.5h12.87v-1.254c0-2.453-.711-4.704-2.004-6.34-1.516-1.919-3.784-2.932-6.558-2.932m2.792 8.917l-7.095.274c.202-5.815 1.318-8.19 3.84-8.19.696 0 1.26.231 1.725.707 1.073 1.1 1.574 3.46 1.53 7.21M119.547 11.975c-6.284 0-10.673 5.183-10.673 12.604 0 3.59 1.056 6.566 3.053 8.605 1.782 1.82 4.261 2.822 6.981 2.822 6.312 0 8.602-4.759 9.153-6.217l.04-.106-.747-.384-.06.095c-1.096 1.693-3.155 2.702-5.51 2.702-1.806 0-3.43-.79-4.573-2.227-1.29-1.622-1.971-4.035-1.971-6.981V22.5h12.87v-1.254c0-2.453-.712-4.704-2.004-6.34-1.516-1.919-3.784-2.932-6.559-2.932m2.792 8.917l-7.095.274c.203-5.815 1.319-8.19 3.84-8.19.697 0 1.262.231 1.726.707 1.073 1.101 1.574 3.46 1.53 7.21M188.252 11.975c-6.284 0-10.673 5.183-10.673 12.604 0 3.59 1.056 6.566 3.053 8.605 1.782 1.82 4.261 2.822 6.981 2.822 6.312 0 8.601-4.759 9.153-6.217l.04-.106-.747-.384-.06.095c-1.096 1.693-3.156 2.702-5.51 2.702-1.806 0-3.43-.79-4.573-2.227-1.29-1.622-1.972-4.035-1.972-6.981V22.5h12.87v-1.254c0-2.453-.711-4.704-2.003-6.34-1.516-1.919-3.784-2.932-6.559-2.932m2.792 8.917l-7.095.274c.202-5.815 1.318-8.19 3.84-8.19.696 0 1.261.231 1.725.707 1.074 1.101 1.574 3.46 1.53 7.21M36.518 30.625V17.588c0-3.463-1.99-5.613-5.192-5.613-2.765 0-5.77 2.171-7.443 3.596l.132-3.62-8.977 1.73v.84h.124c1.64 0 2.528.586 2.528 3.676v12.428c0 1.424-.37 3.815-2.843 3.815h-.124v.956h12.025v-.956h-.123c-2.292 0-2.752-1.46-2.752-3.815V16.446c1.355-.662 2.495-.984 3.482-.984 1.921 0 2.98 1.254 2.98 3.533v11.63c0 2.638-.68 3.815-2.204 3.815h-.124v.956h11.387v-.956h-.125c-2.29 0-2.751-1.46-2.751-3.815M150.492 30.625V17.588c0-3.463-1.989-5.613-5.191-5.613-2.765 0-5.77 2.171-7.444 3.596l.133-3.62-8.978 1.73v.84h.124c1.64 0 2.529.586 2.529 3.676v12.428c0 1.424-.37 3.815-2.844 3.815h-.124v.956h12.026v-.956h-.125c-2.29 0-2.75-1.46-2.75-3.815V16.446c1.355-.662 2.494-.984 3.482-.984 1.92 0 2.98 1.254 2.98 3.533v11.63c0 2.638-.68 3.815-2.204 3.815h-.124v.956h11.387v-.956h-.125c-2.291 0-2.752-1.46-2.752-3.815M219.197 30.625V17.588c0-3.463-1.99-5.613-5.191-5.613-2.766 0-5.77 2.171-7.444 3.596l.133-3.62-8.978 1.73v.84h.124c1.64 0 2.528.586 2.528 3.676v12.428c0 1.424-.37 3.815-2.843 3.815h-.124v.956h12.026v-.956h-.124c-2.292 0-2.752-1.46-2.752-3.815V16.446c1.355-.662 2.495-.984 3.482-.984 1.922 0 2.98 1.254 2.98 3.533v11.63c0 2.638-.68 3.815-2.204 3.815h-.124v.956h11.387v-.956h-.124c-2.292 0-2.752-1.46-2.752-3.815M236.057 31.442l-.079.094c-.731.878-1.866 1.361-3.195 1.361-1.18 0-1.884-.83-1.884-2.22V14.525h4.93V12.63h-4.93v-5.86h-.307l-8.66 7.381v.372h2.784v17.182c0 3.578 2.942 4.113 4.696 4.113 3.93 0 6.096-2.044 7.221-3.758l.063-.094-.64-.525M257 30.625V11.95l-8.694 1.732v.84h.124c1.995 0 2.386.271 2.386 3.392v12.711c0 2.29-.406 3.815-2.386 3.815h-.124v.956h11.204v-.956h-.124c-1.98 0-2.386-1.526-2.386-3.815M253.85 9.242c2.061 0 3.446-1.448 3.446-3.603 0-2.155-1.385-3.603-3.446-3.603s-3.447 1.448-3.447 3.603c0 2.155 1.386 3.603 3.447 3.603M238.803 31.968c0-2.116 1.697-3.857 3.753-3.857 2.1 0 3.754 1.74 3.754 3.857 0 2.258-1.654 3.952-3.754 3.952-2.056 0-3.753-1.694-3.753-3.952"/>
        <path fill="#006834" d="M304.054 13.083l.88 3.25c-.424.78-.848 1.553-1.287 2.336l-1.378-5.2a8.6 8.6 0 0 0 1.785-.386zm-3.49.582l1.884 7.094c-.514.83-.98 1.67-1.458 2.479l-2.57-9.63c.277.045.668.067 1.026.08.338.011.757.011 1.118-.023zm-4.128-.342l3.196 12.126c-.513.855-1.022 1.69-1.516 2.488l-4.024-15.31c.768.274 1.443.498 2.221.67l.123.026zm-4.692-1.638l4.846 18.474c-.738 1.142-1.412 2.07-1.956 2.83L288.64 9.925c.95.645 2.156 1.3 3.104 1.76zm13.848 1.034s.938-.382 1.824-.808c-.375.674-.766 1.457-1.367 2.465l-.457-1.657zm4.375-6c1.163-.046 2.153.595 2.461 1.646.211.72.117 1.619-.209 2.634l-6.799 21.832-3.39-.005-1.634 2.675c-1.376 1.963-2.582 2.974-4.736 2.974-1.829 0-3.303-1.066-4.852-2.718-2.683-2.86-4.972-7.487-5.992-12.976-.783-4.209-.571-10.66 1.139-14.544l2.05 1.33c-1.14 4.17-.672 9.78.211 13.16 2.017 7.712 4.974 10.799 6.541 12.054 3.702-4.65 12.059-19.278 14.483-24.745-1.333.807-5.05 2.703-9.357 2.585-5.057-.138-9.874-2.705-15.19-6.567.645-1.871 1.97-4.244 3.354-5.818 5.92 6.534 9.487 8.484 13.956 8.484 1.506 0 3.099-.376 4.167-.748 1.489-.519 2.72-1.253 3.797-1.253z"/>
    </g>
</svg>
